<mxfile host="app.diagrams.net" modified="2022-12-26T03:57:01.224Z" agent="5.0 (Windows NT 10.0; Win64; x64) AppleWebKit/537.36 (KHTML, like Gecko) Chrome/108.0.0.0 Safari/537.36" etag="W9Rj5AH9pyV4yil0hUPf" version="20.7.4" type="github">
  <diagram id="wYuMe5kM4yV2TnEpnyqj" name="Page-1">
    <mxGraphModel dx="1034" dy="1538" grid="1" gridSize="10" guides="1" tooltips="1" connect="1" arrows="1" fold="1" page="1" pageScale="1" pageWidth="850" pageHeight="1100" math="0" shadow="0">
      <root>
        <mxCell id="0" />
        <mxCell id="1" parent="0" />
        <mxCell id="PQzlx6IFT9ufVY_56LJa-49" style="edgeStyle=orthogonalEdgeStyle;rounded=0;orthogonalLoop=1;jettySize=auto;html=1;" parent="1" source="PQzlx6IFT9ufVY_56LJa-1" target="PQzlx6IFT9ufVY_56LJa-48" edge="1">
          <mxGeometry relative="1" as="geometry" />
        </mxCell>
        <mxCell id="PQzlx6IFT9ufVY_56LJa-1" value="S3 Directory(Client)" style="rounded=0;whiteSpace=wrap;html=1;fillColor=#fff2cc;strokeColor=#d6b656;" parent="1" vertex="1">
          <mxGeometry x="10" y="140" width="90" height="40" as="geometry" />
        </mxCell>
        <mxCell id="PQzlx6IFT9ufVY_56LJa-3" value="File Monitoring" style="rounded=0;whiteSpace=wrap;html=1;fillColor=#fff2cc;strokeColor=#d6b656;" parent="1" vertex="1">
          <mxGeometry x="375" y="280" width="100" height="40" as="geometry" />
        </mxCell>
        <mxCell id="PQzlx6IFT9ufVY_56LJa-10" value="S3 Bucket" style="rounded=0;whiteSpace=wrap;html=1;fillColor=#fff2cc;strokeColor=#d6b656;" parent="1" vertex="1">
          <mxGeometry x="700" y="18" width="100" height="40" as="geometry" />
        </mxCell>
        <mxCell id="AHBBiQd-p7hIOELKxNmG-21" style="edgeStyle=orthogonalEdgeStyle;rounded=0;orthogonalLoop=1;jettySize=auto;html=1;entryX=0.5;entryY=0;entryDx=0;entryDy=0;entryPerimeter=0;" edge="1" parent="1" source="PQzlx6IFT9ufVY_56LJa-11" target="PQzlx6IFT9ufVY_56LJa-15">
          <mxGeometry relative="1" as="geometry">
            <mxPoint x="780" y="970" as="targetPoint" />
          </mxGeometry>
        </mxCell>
        <mxCell id="PQzlx6IFT9ufVY_56LJa-11" value="Bill Manager" style="rounded=0;whiteSpace=wrap;html=1;fillColor=#fff2cc;strokeColor=#d6b656;" parent="1" vertex="1">
          <mxGeometry x="730" y="800" width="100" height="40" as="geometry" />
        </mxCell>
        <mxCell id="PQzlx6IFT9ufVY_56LJa-37" style="edgeStyle=orthogonalEdgeStyle;rounded=0;orthogonalLoop=1;jettySize=auto;html=1;entryX=1;entryY=0.75;entryDx=0;entryDy=0;" parent="1" source="PQzlx6IFT9ufVY_56LJa-12" target="PQzlx6IFT9ufVY_56LJa-24" edge="1">
          <mxGeometry relative="1" as="geometry" />
        </mxCell>
        <mxCell id="PQzlx6IFT9ufVY_56LJa-39" style="edgeStyle=orthogonalEdgeStyle;rounded=0;orthogonalLoop=1;jettySize=auto;html=1;entryX=0;entryY=0.25;entryDx=0;entryDy=0;" parent="1" source="PQzlx6IFT9ufVY_56LJa-12" target="PQzlx6IFT9ufVY_56LJa-11" edge="1">
          <mxGeometry relative="1" as="geometry" />
        </mxCell>
        <mxCell id="PQzlx6IFT9ufVY_56LJa-12" value="Bill Processor" style="rounded=0;whiteSpace=wrap;html=1;fillColor=#fff2cc;strokeColor=#d6b656;" parent="1" vertex="1">
          <mxGeometry x="375" y="790" width="100" height="40" as="geometry" />
        </mxCell>
        <mxCell id="AHBBiQd-p7hIOELKxNmG-16" style="edgeStyle=orthogonalEdgeStyle;rounded=0;orthogonalLoop=1;jettySize=auto;html=1;entryX=0.5;entryY=1;entryDx=0;entryDy=0;" edge="1" parent="1" source="PQzlx6IFT9ufVY_56LJa-13" target="PQzlx6IFT9ufVY_56LJa-10">
          <mxGeometry relative="1" as="geometry" />
        </mxCell>
        <mxCell id="AHBBiQd-p7hIOELKxNmG-22" style="edgeStyle=orthogonalEdgeStyle;rounded=0;orthogonalLoop=1;jettySize=auto;html=1;exitX=0.5;exitY=1;exitDx=0;exitDy=0;" edge="1" parent="1" source="PQzlx6IFT9ufVY_56LJa-13" target="PQzlx6IFT9ufVY_56LJa-16">
          <mxGeometry relative="1" as="geometry">
            <Array as="points">
              <mxPoint x="790" y="410" />
              <mxPoint x="425" y="410" />
            </Array>
          </mxGeometry>
        </mxCell>
        <mxCell id="PQzlx6IFT9ufVY_56LJa-13" value="Statement Stream Parser" style="rounded=0;whiteSpace=wrap;html=1;fillColor=#fff2cc;strokeColor=#d6b656;" parent="1" vertex="1">
          <mxGeometry x="740" y="280" width="100" height="40" as="geometry" />
        </mxCell>
        <mxCell id="PQzlx6IFT9ufVY_56LJa-14" value="Patient pay_v3 schema" style="shape=cylinder3;whiteSpace=wrap;html=1;boundedLbl=1;backgroundOutline=1;size=15;fillColor=#dae8fc;strokeColor=#6c8ebf;" parent="1" vertex="1">
          <mxGeometry x="30" y="990" width="50" height="70" as="geometry" />
        </mxCell>
        <mxCell id="PQzlx6IFT9ufVY_56LJa-15" value="DB(Bills_db)" style="shape=cylinder3;whiteSpace=wrap;html=1;boundedLbl=1;backgroundOutline=1;size=15;fillColor=#dae8fc;strokeColor=#6c8ebf;" parent="1" vertex="1">
          <mxGeometry x="770" y="1000" width="40" height="60" as="geometry" />
        </mxCell>
        <mxCell id="AHBBiQd-p7hIOELKxNmG-23" style="edgeStyle=orthogonalEdgeStyle;rounded=0;orthogonalLoop=1;jettySize=auto;html=1;entryX=0.403;entryY=0.033;entryDx=0;entryDy=0;entryPerimeter=0;" edge="1" parent="1" source="PQzlx6IFT9ufVY_56LJa-16" target="PQzlx6IFT9ufVY_56LJa-12">
          <mxGeometry relative="1" as="geometry" />
        </mxCell>
        <mxCell id="PQzlx6IFT9ufVY_56LJa-16" value="Parsers" style="rounded=0;whiteSpace=wrap;html=1;fillColor=#fff2cc;strokeColor=#d6b656;" parent="1" vertex="1">
          <mxGeometry x="375" y="520" width="100" height="40" as="geometry" />
        </mxCell>
        <mxCell id="PQzlx6IFT9ufVY_56LJa-30" style="edgeStyle=orthogonalEdgeStyle;rounded=0;orthogonalLoop=1;jettySize=auto;html=1;entryX=0.5;entryY=0;entryDx=0;entryDy=0;" parent="1" source="PQzlx6IFT9ufVY_56LJa-18" target="PQzlx6IFT9ufVY_56LJa-1" edge="1">
          <mxGeometry relative="1" as="geometry" />
        </mxCell>
        <mxCell id="PQzlx6IFT9ufVY_56LJa-18" value="Partner" style="shape=umlActor;verticalLabelPosition=bottom;verticalAlign=top;html=1;outlineConnect=0;fillColor=#e1d5e7;strokeColor=#9673a6;" parent="1" vertex="1">
          <mxGeometry x="40" y="22" width="30" height="40" as="geometry" />
        </mxCell>
        <mxCell id="AHBBiQd-p7hIOELKxNmG-19" style="edgeStyle=orthogonalEdgeStyle;rounded=0;orthogonalLoop=1;jettySize=auto;html=1;entryX=0.333;entryY=0.01;entryDx=0;entryDy=0;entryPerimeter=0;" edge="1" parent="1" source="PQzlx6IFT9ufVY_56LJa-24" target="PQzlx6IFT9ufVY_56LJa-14">
          <mxGeometry relative="1" as="geometry" />
        </mxCell>
        <mxCell id="PQzlx6IFT9ufVY_56LJa-24" value="Patient Service" style="rounded=0;whiteSpace=wrap;html=1;fillColor=#fff2cc;strokeColor=#d6b656;" parent="1" vertex="1">
          <mxGeometry x="10" y="780" width="100" height="40" as="geometry" />
        </mxCell>
        <mxCell id="AHBBiQd-p7hIOELKxNmG-11" style="edgeStyle=orthogonalEdgeStyle;rounded=0;orthogonalLoop=1;jettySize=auto;html=1;entryX=0;entryY=0.5;entryDx=0;entryDy=0;" edge="1" parent="1" source="PQzlx6IFT9ufVY_56LJa-26" target="PQzlx6IFT9ufVY_56LJa-10">
          <mxGeometry relative="1" as="geometry">
            <Array as="points">
              <mxPoint x="520" y="40" />
              <mxPoint x="520" y="42" />
            </Array>
          </mxGeometry>
        </mxCell>
        <mxCell id="PQzlx6IFT9ufVY_56LJa-26" value="Raw File Service" style="ellipse;whiteSpace=wrap;html=1;fillColor=#f8cecc;strokeColor=#b85450;" parent="1" vertex="1">
          <mxGeometry x="365" y="28" width="120" height="40" as="geometry" />
        </mxCell>
        <mxCell id="AHBBiQd-p7hIOELKxNmG-32" style="edgeStyle=orthogonalEdgeStyle;rounded=0;orthogonalLoop=1;jettySize=auto;html=1;entryX=0;entryY=0.25;entryDx=0;entryDy=0;" edge="1" parent="1" source="PQzlx6IFT9ufVY_56LJa-48" target="PQzlx6IFT9ufVY_56LJa-3">
          <mxGeometry relative="1" as="geometry">
            <Array as="points">
              <mxPoint x="287" y="179" />
              <mxPoint x="287" y="290" />
            </Array>
          </mxGeometry>
        </mxCell>
        <mxCell id="PQzlx6IFT9ufVY_56LJa-48" value="" style="sketch=0;outlineConnect=0;fontColor=#232F3E;gradientColor=none;fillColor=#3F8624;strokeColor=none;dashed=0;verticalLabelPosition=bottom;verticalAlign=top;align=center;html=1;fontSize=12;fontStyle=0;aspect=fixed;pointerEvents=1;shape=mxgraph.aws4.lambda_function;direction=west;rotation=-180;" parent="1" vertex="1">
          <mxGeometry x="180" y="170" width="18" height="18" as="geometry" />
        </mxCell>
        <mxCell id="AHBBiQd-p7hIOELKxNmG-12" value="Lambda&amp;nbsp; Trigger when a file is dropped" style="text;html=1;strokeColor=none;fillColor=none;align=center;verticalAlign=middle;whiteSpace=wrap;rounded=0;" vertex="1" parent="1">
          <mxGeometry x="210" y="140" width="112" height="30" as="geometry" />
        </mxCell>
        <mxCell id="AHBBiQd-p7hIOELKxNmG-14" value="raw file service moves s3 client files to s3 bucket" style="text;html=1;strokeColor=none;fillColor=none;align=center;verticalAlign=middle;whiteSpace=wrap;rounded=0;" vertex="1" parent="1">
          <mxGeometry x="500" y="10" width="110" height="18" as="geometry" />
        </mxCell>
        <mxCell id="AHBBiQd-p7hIOELKxNmG-24" value="MetaData sending" style="text;html=1;strokeColor=none;fillColor=none;align=center;verticalAlign=middle;whiteSpace=wrap;rounded=0;" vertex="1" parent="1">
          <mxGeometry x="475" y="100" width="60" height="30" as="geometry" />
        </mxCell>
        <mxCell id="AHBBiQd-p7hIOELKxNmG-29" value="" style="edgeStyle=orthogonalEdgeStyle;rounded=0;orthogonalLoop=1;jettySize=auto;html=1;" edge="1" parent="1" source="AHBBiQd-p7hIOELKxNmG-28" target="PQzlx6IFT9ufVY_56LJa-26">
          <mxGeometry relative="1" as="geometry" />
        </mxCell>
        <mxCell id="AHBBiQd-p7hIOELKxNmG-28" value="RestTemplate Call" style="text;html=1;strokeColor=none;fillColor=none;align=center;verticalAlign=middle;whiteSpace=wrap;rounded=0;" vertex="1" parent="1">
          <mxGeometry x="395" y="120" width="60" height="30" as="geometry" />
        </mxCell>
        <mxCell id="AHBBiQd-p7hIOELKxNmG-30" value="" style="endArrow=none;html=1;rounded=0;entryX=0.5;entryY=1;entryDx=0;entryDy=0;" edge="1" parent="1" source="PQzlx6IFT9ufVY_56LJa-3" target="AHBBiQd-p7hIOELKxNmG-28">
          <mxGeometry width="50" height="50" relative="1" as="geometry">
            <mxPoint x="415" y="200" as="sourcePoint" />
            <mxPoint x="465" y="150" as="targetPoint" />
          </mxGeometry>
        </mxCell>
      </root>
    </mxGraphModel>
  </diagram>
</mxfile>
